<svg width="19" height="23" viewBox="0 0 19 23" fill="none" xmlns="http://www.w3.org/2000/svg">
<path d="M15.286 5.99842V4.68828H14.4617V5.39134L9.1601 1.48694L1.14355 7.39044L2.52825 9.27047L3.02065 8.90776V16.8318H7.64644V11.3344C7.64644 10.4998 8.32569 9.82094 9.16046 9.82094C9.99505 9.82094 10.6739 10.4998 10.6739 11.3344V16.8318H15.3003V8.90758L15.7925 9.2701L17.1765 7.39007L15.286 5.99842ZM15.6175 8.11732L14.4759 7.27577V16.0073H11.4981V11.3342C11.4981 10.0452 10.4494 8.99642 9.16028 8.99642C7.87102 8.99642 6.82192 10.0452 6.82192 11.3342V16.0073H3.8448V7.27613L2.70301 8.1175L2.29615 7.5652L9.1601 2.51058L16.0239 7.5652L15.6175 8.11732Z" fill="white"/>
</svg>
