<svg width="16" height="21" viewBox="0 0 16 21" fill="none" xmlns="http://www.w3.org/2000/svg">
<g clip-path="url(#clip0_67_142)">
<path d="M7.99393 0.716187C3.86153 0.716187 0.5 4.07796 0.5 8.21012C0.5 12.3423 3.86153 15.7041 7.99393 15.7041C12.1263 15.7041 15.4879 12.3423 15.4879 8.21012C15.4879 4.07796 12.1263 0.716187 7.99393 0.716187ZM7.99393 14.7049C4.41283 14.7049 1.49919 11.7915 1.49919 8.21012C1.49919 4.62877 4.41283 1.71538 7.99393 1.71538C11.575 1.71538 14.4887 4.62877 14.4887 8.21012C14.4887 11.7915 11.575 14.7049 7.99393 14.7049Z" fill="white"/>
<path d="M8.1609 12.22C8.11279 12.22 8.06768 12.1929 8.02556 12.1386C7.98345 12.0843 7.96236 12.0171 7.96236 11.9371C7.96236 11.5198 8.28016 10.2965 8.91619 8.26734C9.30612 7.02694 9.50112 6.32381 9.50112 6.15805C9.50112 6.02086 9.44951 5.91225 9.34774 5.83221C9.24552 5.75218 9.09869 5.71216 8.9062 5.71216C8.55783 5.71216 8.13582 5.84505 7.64012 6.11084C7.14443 6.37662 6.59607 6.82396 5.99561 7.45275L6.39258 7.74426C6.92186 7.25266 7.26323 6.96115 7.4166 6.86972C7.56998 6.77825 7.70682 6.73253 7.82712 6.73253C7.93538 6.73253 7.98954 6.78969 7.98954 6.90399C7.98954 7.00691 7.96851 7.12411 7.92639 7.25556C7.02422 10.0337 6.57309 11.7799 6.57309 12.4945C6.57309 12.7174 6.63474 12.8917 6.75804 13.0175C6.88129 13.1432 7.0482 13.2061 7.25868 13.2061C7.49929 13.2061 7.80904 13.1032 8.18793 12.8974C8.56687 12.6916 9.16834 12.22 9.99237 11.4826L9.6405 11.1568C8.84655 11.8657 8.3534 12.22 8.1609 12.22Z" fill="white"/>
<path d="M7.99382 5.21249C8.54566 5.21249 8.99301 4.76514 8.99301 4.2133C8.99301 3.66146 8.54566 3.21411 7.99382 3.21411C7.44198 3.21411 6.99463 3.66146 6.99463 4.2133C6.99463 4.76514 7.44198 5.21249 7.99382 5.21249Z" fill="white"/>
</g>
<defs>
<clipPath id="clip0_67_142">
<rect width="15.9871" height="19.9838" fill="white" transform="translate(0 0.216553)"/>
</clipPath>
</defs>
</svg>
