<svg width="17" height="19" viewBox="0 0 17 19" fill="none" xmlns="http://www.w3.org/2000/svg">
<path d="M8.97188 0.906982C6.40047 0.906982 4.29191 3.01554 4.29191 5.58695C4.29191 8.15837 6.40047 10.2155 8.97188 10.2155C11.5433 10.2155 13.6519 8.15837 13.6519 5.58695C13.6519 3.01554 11.5433 0.906982 8.97188 0.906982ZM8.97188 2.19269C10.8233 2.19269 12.3147 3.73554 12.3147 5.58695C12.3147 7.43837 10.8233 8.92979 8.97188 8.92979C7.12047 8.92979 5.57762 7.43837 5.57762 5.58695C5.57762 3.73554 7.12047 2.19269 8.97188 2.19269Z" fill="white"/>
<path d="M8.97155 10.627C4.80586 10.627 1.36017 13.8155 0.94874 17.8783C0.845884 18.7012 2.13159 18.8555 2.23445 17.9812C2.59445 14.5869 5.47443 11.9127 8.97155 11.9127C12.4687 11.9127 15.3487 14.5869 15.7087 17.9812C15.7601 18.8555 17.0972 18.7012 16.9944 17.8783C16.5829 13.8155 13.1372 10.627 8.97155 10.627Z" fill="white"/>
</svg>
