<svg width="25" height="20" viewBox="0 0 25 20" fill="none" xmlns="http://www.w3.org/2000/svg">
<path fill-rule="evenodd" clip-rule="evenodd" d="M20.7809 5.96755C21.2114 5.53524 21.478 4.93987 21.478 4.28258C21.478 2.96829 20.4126 1.90321 19.0983 1.90321C17.784 1.90321 16.7184 2.96829 16.7184 4.28258C16.7184 4.93987 16.9852 5.53524 17.4155 5.96545C18.3423 6.89769 19.8579 6.89051 20.7809 5.96755ZM6.99269 14.3122C7.42291 13.8799 7.68977 13.2845 7.68977 12.6273C7.68977 11.313 6.6241 10.2479 5.30981 10.2479C3.99552 10.2479 2.93015 11.313 2.93015 12.6273C2.93015 13.2845 3.19672 13.8799 3.62723 14.3104C4.55379 15.2424 6.06942 15.2352 6.99269 14.3122V14.3122ZM8.02725 14.5399C9.52194 14.8454 10.6199 16.1749 10.6199 17.7112V19.2235C10.6199 19.4838 10.4087 19.695 10.1484 19.695H0.471505C0.21122 19.695 0 19.4838 0 19.2235V17.7112C0 16.1749 1.09828 14.8451 2.59357 14.5399C2.21152 13.9993 1.98714 13.3393 1.98714 12.6273C1.98714 10.7927 3.47525 9.30488 5.30981 9.30488C7.14467 9.30488 8.63248 10.7927 8.63248 12.6273C8.63248 13.339 8.4084 13.999 8.02725 14.5399V14.5399ZM3.50637 15.418C2.11339 15.418 0.943009 16.2138 0.943009 17.7112V18.752H9.67691V17.7112C9.67691 16.2135 8.50653 15.418 7.11356 15.418C6.02515 16.1211 4.59807 16.1339 3.50637 15.418ZM21.1974 13.9116C21.6357 14.3499 20.9688 15.0165 20.5305 14.5782L19.3431 13.3908L19.3152 16.7356C19.3152 16.9959 19.104 17.2071 18.8437 17.2071H11.8786C11.2587 17.2071 11.2587 16.2641 11.8786 16.2641H18.3782L18.403 13.4102L17.235 14.5782C16.7968 15.0165 16.1302 14.3499 16.5682 13.9116L18.5493 11.9305C18.7333 11.7465 19.0322 11.7465 19.2162 11.9305L21.1974 13.9116V13.9116ZM21.8158 6.19522C23.3102 6.50068 24.4081 7.83023 24.4081 9.36651V10.8789C24.4081 11.1391 24.1969 11.3504 23.9369 11.3504H14.26C13.9997 11.3504 13.7885 11.1391 13.7885 10.8789V9.36651C13.7885 7.83023 14.8868 6.50038 16.3818 6.19522C16 5.65461 15.7757 4.99462 15.7757 4.28258C15.7757 2.44802 17.2635 0.960205 19.0983 0.960205C20.9329 0.960205 22.421 2.44802 22.421 4.28258C22.421 4.99432 22.1969 5.65431 21.8158 6.19522V6.19522ZM17.2946 7.07331C15.9016 7.07331 14.7315 7.86912 14.7315 9.36651V10.4074H23.4654V9.36651C23.4654 7.86883 22.2947 7.07331 20.9018 7.07331C19.8134 7.77638 18.3863 7.78924 17.2946 7.07331V7.07331Z" fill="white"/>
</svg>
