<svg width="19" height="24" viewBox="0 0 19 24" fill="none" xmlns="http://www.w3.org/2000/svg">
<path d="M9.15952 11.6928C9.20509 11.6928 9.2502 11.6838 9.2923 11.6664C9.33439 11.649 9.37264 11.6234 9.40486 11.5912C9.43707 11.559 9.46263 11.5207 9.48006 11.4786C9.4975 11.4365 9.50647 11.3914 9.50646 11.3459V10.6699C9.82625 10.6113 10.1238 10.4661 10.3668 10.25C10.5182 10.1196 10.6402 9.95846 10.7246 9.77729C10.809 9.59612 10.8539 9.39907 10.8563 9.19922C10.8587 8.99937 10.8186 8.8013 10.7386 8.61815C10.6586 8.435 10.5405 8.27096 10.3923 8.13693C10.0641 7.86951 9.68311 7.67439 9.27431 7.56434C8.62095 7.33557 8.22007 7.16522 8.16153 6.72924C8.151 6.5631 8.19787 6.39838 8.29428 6.26267C8.3907 6.12696 8.5308 6.02848 8.69115 5.98373C9.14577 5.88032 9.62151 5.92442 10.0494 6.10963C10.1349 6.14364 10.2304 6.14228 10.3149 6.10586C10.3994 6.06944 10.466 6.00094 10.5 5.91543C10.534 5.82992 10.5326 5.7344 10.4962 5.6499C10.4598 5.56539 10.3913 5.49881 10.3058 5.46481C10.049 5.3628 9.78049 5.29329 9.50646 5.25789V4.60463C9.50646 4.51262 9.46991 4.42437 9.40485 4.35931C9.33978 4.29424 9.25154 4.25769 9.15952 4.25769C9.06751 4.25769 8.97926 4.29424 8.9142 4.35931C8.84913 4.42437 8.81258 4.51262 8.81258 4.60463V5.25431C8.70505 5.26731 8.5987 5.2887 8.49451 5.31829C8.17574 5.41063 7.89927 5.61146 7.7129 5.88605C7.52653 6.16065 7.44198 6.49174 7.47387 6.82207C7.59341 7.71097 8.39828 7.99273 9.045 8.21919C9.35917 8.30185 9.65433 8.44467 9.91412 8.63972C9.99304 8.70783 10.0562 8.79235 10.099 8.88737C10.1419 8.98239 10.1636 9.08563 10.1624 9.18987C10.1613 9.29412 10.1374 9.39686 10.0925 9.49092C10.0475 9.58499 9.98258 9.66811 9.90218 9.73448C9.68335 9.91701 9.40866 10.0192 9.12373 10.024C8.80979 10.0327 8.4959 10.0049 8.18835 9.9413C8.1015 9.9261 8.01547 9.90656 7.93058 9.88276C7.8425 9.85643 7.74756 9.86613 7.66663 9.90974C7.58569 9.95335 7.52537 10.0273 7.49891 10.1153C7.47244 10.2034 7.482 10.2983 7.52548 10.3793C7.56896 10.4603 7.64281 10.5208 7.73082 10.5474C7.8413 10.5787 7.9533 10.6043 8.06638 10.6243C8.31278 10.6715 8.56208 10.702 8.81258 10.7157V11.3459C8.81258 11.3914 8.82155 11.4365 8.83899 11.4786C8.85642 11.5207 8.88198 11.559 8.91419 11.5912C8.94641 11.6234 8.98466 11.649 9.02675 11.6664C9.06885 11.6838 9.11396 11.6928 9.15952 11.6928Z" fill="white"/>
<path d="M4.73248 13.0602C3.72259 11.9436 3.15938 10.4941 3.15043 8.98852C3.1518 8.01157 3.39134 7.04968 3.84832 6.18619C4.30529 5.3227 4.96591 4.58366 5.77294 4.03308C6.57997 3.4825 7.50908 3.13699 8.47976 3.02648C9.45045 2.91598 10.4334 3.04381 11.3436 3.39891C12.2537 3.75401 13.0635 4.32566 13.7029 5.06434C14.3423 5.80302 14.7919 6.68645 15.0128 7.6381C15.2337 8.58974 15.2193 9.58091 14.9707 10.5257C14.7222 11.4705 14.247 12.3405 13.5864 13.0602H14.4857C15.1328 12.2143 15.569 11.2264 15.7582 10.1783C15.9475 9.13018 15.8843 8.05208 15.5739 7.03326C15.2635 6.01445 14.7149 5.08425 13.9734 4.31969C13.232 3.55513 12.319 2.97823 11.3102 2.63676C10.3014 2.29529 9.22574 2.19908 8.17233 2.3561C7.11893 2.51312 6.1181 2.91884 5.25272 3.53968C4.38734 4.16051 3.68233 4.97859 3.19607 5.92615C2.70981 6.87371 2.45631 7.92348 2.45654 8.98852C2.4652 10.4581 2.94694 11.8858 3.83043 13.0602H4.73248Z" fill="white"/>
<path d="M16.5774 13.9991H1.7419C1.40023 13.9991 1.07255 14.1349 0.830945 14.3765C0.589343 14.6181 0.453613 14.9458 0.453613 15.2874C0.453613 15.6291 0.589343 15.9568 0.830945 16.1984C1.07255 16.44 1.40023 16.5757 1.7419 16.5757H16.5774C16.9191 16.5757 17.2468 16.44 17.4884 16.1984C17.73 15.9568 17.8657 15.6291 17.8657 15.2874C17.8657 14.9458 17.73 14.6181 17.4884 14.3765C17.2468 14.1349 16.9191 13.9991 16.5774 13.9991ZM16.5774 15.8818H1.7419C1.58426 15.8818 1.43307 15.8192 1.32159 15.7077C1.21012 15.5963 1.1475 15.4451 1.1475 15.2874C1.1475 15.1298 1.21012 14.9786 1.32159 14.8671C1.43307 14.7557 1.58426 14.693 1.7419 14.693H16.5774C16.7351 14.693 16.8863 14.7557 16.9977 14.8671C17.1092 14.9786 17.1718 15.1298 17.1718 15.2874C17.1718 15.4451 17.1092 15.5963 16.9977 15.7077C16.8863 15.8192 16.7351 15.8818 16.5774 15.8818Z" fill="white"/>
</svg>
