<svg width="17" height="16" viewBox="0 0 17 16" fill="none" xmlns="http://www.w3.org/2000/svg">
<path d="M16.2127 7.37993C15.9562 6.47168 15.6991 5.56344 15.4414 4.6552C15.3424 4.30771 15.3148 4.29147 14.9543 4.26874C14.4103 4.23464 13.8664 4.19891 13.3305 4.15507C13.0301 4.13071 13.0366 4.12422 13.0707 3.83031C13.1519 3.15806 13.2201 2.48256 13.298 1.78595C13.294 1.72985 13.2733 1.67623 13.2386 1.63197C13.2038 1.58771 13.1567 1.55482 13.1032 1.53751C12.2166 1.1045 11.3311 0.668782 10.4467 0.230358C10.3935 0.20218 10.3346 0.186622 10.2745 0.184891C10.2302 0.186097 10.1866 0.196372 10.1464 0.215083C10.1061 0.233794 10.0702 0.260545 10.0407 0.293686C9.52759 0.793814 9.00797 1.28582 8.49485 1.78595C8.47873 1.81041 8.45679 1.83048 8.431 1.84436C8.40521 1.85825 8.37638 1.86552 8.34709 1.86552C8.31779 1.86552 8.28896 1.85825 8.26317 1.84436C8.23738 1.83048 8.21544 1.81041 8.19932 1.78595C7.64398 1.23711 7.08215 0.696387 6.52356 0.150792C6.49439 0.112238 6.45782 0.079888 6.416 0.0556316C6.37418 0.0313752 6.32794 0.0156997 6.27999 0.00952148C6.2109 0.0149472 6.14383 0.0354554 6.08352 0.0696019C5.1953 0.495036 4.3152 0.925342 3.43023 1.3459C3.36276 1.37276 3.30715 1.42292 3.27348 1.48727C3.23982 1.55162 3.23033 1.6259 3.24674 1.69664C3.32469 2.41274 3.39289 3.13208 3.47245 3.84817C3.48193 3.87586 3.48426 3.9055 3.47922 3.93433C3.47419 3.96316 3.46195 3.99025 3.44365 4.01309C3.42534 4.03593 3.40157 4.05377 3.37453 4.06497C3.34749 4.07616 3.31805 4.08035 3.28896 4.07713C2.4998 4.1778 1.71226 4.28822 0.923094 4.40189C0.853556 4.40473 0.787252 4.43202 0.735863 4.47895C0.684474 4.52589 0.651297 4.58945 0.642177 4.65845C0.435955 5.60674 0.22811 6.55991 0.0218876 7.51633C-0.02845 7.7534 -0.000845481 7.81023 0.198881 7.93851L1.98506 9.06218C2.14744 9.16123 2.14744 9.19208 2.05488 9.35609L0.880875 11.3761C0.763962 11.5758 0.770457 11.6424 0.918223 11.8194L2.78559 14.0618C2.80947 14.1032 2.84282 14.1383 2.88291 14.1643C2.92299 14.1902 2.96866 14.2063 3.01617 14.2112C3.07523 14.2085 3.13341 14.1959 3.18829 14.1739L5.15795 13.4594C5.21527 13.4343 5.27602 13.4179 5.33819 13.4107C5.40639 13.4107 5.43237 13.4643 5.48758 13.6023C5.77012 14.3103 6.05591 15.0183 6.33033 15.7295C6.3514 15.8112 6.40049 15.883 6.46904 15.9322C6.53758 15.9815 6.62124 16.0051 6.70543 15.999C7.66834 15.999 8.62963 15.999 9.59254 15.999C9.84422 15.999 9.89294 15.9568 9.96926 15.7149C10.1901 15.0134 10.4126 14.3119 10.6285 13.6039C10.6312 13.5648 10.6479 13.5279 10.6757 13.5001C10.7035 13.4723 10.7404 13.4556 10.7795 13.4529C10.811 13.4538 10.8422 13.4593 10.8721 13.4692C11.6028 13.6884 12.3335 13.8978 13.0675 14.1187C13.1445 14.1454 13.2248 14.1618 13.3062 14.1674C13.4166 14.1674 13.4767 14.1057 13.5952 13.9449L15.2856 11.6359C15.4138 11.4605 15.4138 11.3891 15.2856 11.204C14.8894 10.6145 14.4964 10.0235 14.0953 9.43565C14.0745 9.41431 14.0592 9.38817 14.0509 9.35953C14.0425 9.33089 14.0413 9.30065 14.0474 9.27145C14.0535 9.24225 14.0667 9.215 14.0858 9.1921C14.1049 9.1692 14.1294 9.15135 14.157 9.14012C14.7936 8.69033 15.4252 8.23242 16.0585 7.77613C16.2371 7.64298 16.2663 7.56829 16.2127 7.37993ZM15.0761 7.27438C14.589 7.62512 14.0856 7.98885 13.5887 8.33959C13.456 8.42368 13.3422 8.53436 13.2544 8.66464C13.1667 8.79493 13.1068 8.94199 13.0788 9.09655C13.0507 9.25112 13.055 9.40982 13.0913 9.56265C13.1277 9.71548 13.1953 9.85911 13.2899 9.98449C13.5757 10.4018 13.8631 10.8321 14.1408 11.2462L14.2431 11.3988L13.0204 13.0794L12.6047 12.9593C12.1289 12.8213 11.6304 12.6784 11.1579 12.5339C11.0374 12.4967 10.9121 12.4776 10.786 12.477C10.5383 12.4774 10.2976 12.5601 10.1019 12.712C9.90618 12.864 9.76643 13.0766 9.70458 13.3165C9.5422 13.8475 9.3717 14.3882 9.20607 14.9095L9.17197 15.0183H7.10163C6.93926 14.5977 6.77688 14.1788 6.60638 13.7696L6.39366 13.237C6.12898 12.5712 5.67432 12.4251 5.33819 12.4251C5.16205 12.4292 4.98815 12.4655 4.82507 12.5322L4.17556 12.7677L3.25974 13.0924L1.92985 11.4946L2.34391 10.785L2.90088 9.83023C3.25974 9.21482 3.10872 8.59777 2.50792 8.22105L1.51253 7.61375L1.05949 7.32797L1.13581 6.96099C1.25597 6.40782 1.37505 5.8541 1.49305 5.29985L1.91361 5.24301C2.40075 5.17644 2.91062 5.10661 3.4075 5.04329C3.56214 5.03011 3.71244 4.9854 3.84913 4.91192C3.98583 4.83844 4.10604 4.73774 4.20234 4.61603C4.29864 4.49433 4.36899 4.35419 4.40907 4.20426C4.44915 4.05432 4.45809 3.89777 4.43536 3.74425C4.39477 3.3789 4.35742 3.01354 4.32007 2.64819C4.29951 2.44359 4.2784 2.23899 4.25675 2.03439L5.3934 1.48717L6.13385 1.12832L6.21667 1.20788C6.64535 1.62357 7.08702 2.05388 7.5157 2.47931C7.62178 2.59283 7.75001 2.68339 7.89247 2.74541C8.03492 2.80743 8.18858 2.83958 8.34395 2.83988C8.49932 2.84019 8.6531 2.80864 8.79579 2.74718C8.93849 2.68572 9.06707 2.59566 9.1736 2.48256C9.42691 2.23574 9.6813 1.99001 9.93678 1.74536L10.4061 1.29719L12.2702 2.21464V2.28771C12.2166 2.77484 12.1646 3.2425 12.1078 3.7134V3.72964C12.0718 3.90052 12.0731 4.07715 12.1115 4.24751C12.1498 4.41787 12.2245 4.57796 12.3303 4.7169C12.4467 4.84835 12.59 4.95322 12.7506 5.02438C12.9111 5.09555 13.0851 5.13135 13.2607 5.12935C13.7154 5.16507 14.1781 5.19755 14.6003 5.22353C14.7833 5.88604 14.9684 6.55179 15.1557 7.2208L15.0761 7.27438Z" fill="white"/>
</svg>
